<mxfile host="65bd71144e">
    <diagram id="MeTx1rzMOtfi3sSlqGqt" name="第 1 页">
        <mxGraphModel dx="1186" dy="907" grid="1" gridSize="10" guides="1" tooltips="1" connect="1" arrows="1" fold="1" page="1" pageScale="1" pageWidth="827" pageHeight="1169" background="none" math="0" shadow="0">
            <root>
                <mxCell id="0"/>
                <mxCell id="1" parent="0"/>
                <mxCell id="9" value="" style="edgeStyle=none;html=1;sketch=1;curveFitting=1;jiggle=2;" parent="1" source="6" target="8" edge="1">
                    <mxGeometry relative="1" as="geometry"/>
                </mxCell>
                <mxCell id="77" value="" style="edgeStyle=none;html=1;sketch=1;curveFitting=1;jiggle=2;" parent="1" source="6" target="17" edge="1">
                    <mxGeometry relative="1" as="geometry"/>
                </mxCell>
                <mxCell id="6" value="f1" style="labelPosition=center;verticalLabelPosition=middle;align=center;html=1;shape=mxgraph.basic.button;dx=10;whiteSpace=wrap;sketch=1;curveFitting=1;jiggle=2;" parent="1" vertex="1">
                    <mxGeometry x="80" y="70" width="100" height="50" as="geometry"/>
                </mxCell>
                <mxCell id="12" value="" style="edgeStyle=none;html=1;movable=0;resizable=0;rotatable=0;deletable=0;editable=0;connectable=0;sketch=1;curveFitting=1;jiggle=2;" parent="1" source="8" target="11" edge="1">
                    <mxGeometry relative="1" as="geometry"/>
                </mxCell>
                <mxCell id="44" style="edgeStyle=none;html=1;exitX=0.977;exitY=0.057;exitDx=0;exitDy=0;exitPerimeter=0;sketch=1;curveFitting=1;jiggle=2;" parent="1" source="8" edge="1">
                    <mxGeometry relative="1" as="geometry">
                        <mxPoint x="281" y="118" as="targetPoint"/>
                        <Array as="points">
                            <mxPoint x="210" y="140"/>
                        </Array>
                    </mxGeometry>
                </mxCell>
                <mxCell id="8" value="Foo.prototype" style="labelPosition=center;verticalLabelPosition=middle;align=center;html=1;shape=mxgraph.basic.button;dx=10;whiteSpace=wrap;fillColor=rgb(24, 20, 29);sketch=1;curveFitting=1;jiggle=2;" parent="1" vertex="1">
                    <mxGeometry x="80" y="200" width="100" height="50" as="geometry"/>
                </mxCell>
                <mxCell id="10" value="__proto__" style="text;html=1;align=center;verticalAlign=middle;resizable=0;points=[];autosize=1;strokeColor=none;fillColor=none;sketch=1;curveFitting=1;jiggle=2;" parent="1" vertex="1">
                    <mxGeometry x="55" y="140" width="80" height="30" as="geometry"/>
                </mxCell>
                <mxCell id="15" value="" style="edgeStyle=none;html=1;movable=0;resizable=0;rotatable=0;deletable=0;editable=0;connectable=0;sketch=1;curveFitting=1;jiggle=2;" parent="1" source="11" target="14" edge="1">
                    <mxGeometry relative="1" as="geometry"/>
                </mxCell>
                <mxCell id="40" value="" style="edgeStyle=none;html=1;sketch=1;curveFitting=1;jiggle=2;" parent="1" source="11" target="20" edge="1">
                    <mxGeometry relative="1" as="geometry">
                        <Array as="points">
                            <mxPoint x="240" y="320"/>
                        </Array>
                    </mxGeometry>
                </mxCell>
                <mxCell id="11" value="Object.prototype" style="labelPosition=center;verticalLabelPosition=middle;align=center;html=1;shape=mxgraph.basic.button;dx=10;whiteSpace=wrap;fillColor=rgb(24, 20, 29);movable=1;resizable=1;rotatable=1;deletable=1;editable=1;connectable=1;sketch=1;curveFitting=1;jiggle=2;" parent="1" vertex="1">
                    <mxGeometry x="70" y="340" width="120" height="50" as="geometry"/>
                </mxCell>
                <mxCell id="13" value="__proto__" style="text;html=1;align=center;verticalAlign=middle;resizable=0;points=[];autosize=1;strokeColor=none;fillColor=none;sketch=1;curveFitting=1;jiggle=2;" parent="1" vertex="1">
                    <mxGeometry x="55" y="280" width="80" height="30" as="geometry"/>
                </mxCell>
                <mxCell id="14" value="null" style="labelPosition=center;verticalLabelPosition=middle;align=center;html=1;shape=mxgraph.basic.button;dx=10;whiteSpace=wrap;fillColor=rgb(24, 20, 29);sketch=1;curveFitting=1;jiggle=2;" parent="1" vertex="1">
                    <mxGeometry x="70" y="470" width="120" height="50" as="geometry"/>
                </mxCell>
                <mxCell id="16" value="__proto__" style="text;html=1;align=center;verticalAlign=middle;resizable=0;points=[];autosize=1;strokeColor=none;fillColor=none;sketch=1;curveFitting=1;jiggle=2;" parent="1" vertex="1">
                    <mxGeometry x="55" y="420" width="80" height="30" as="geometry"/>
                </mxCell>
                <mxCell id="19" value="" style="edgeStyle=none;html=1;sketch=1;curveFitting=1;jiggle=2;" parent="1" source="17" target="18" edge="1">
                    <mxGeometry relative="1" as="geometry"/>
                </mxCell>
                <mxCell id="45" style="edgeStyle=none;html=1;exitX=0.008;exitY=1;exitDx=0;exitDy=0;exitPerimeter=0;sketch=1;curveFitting=1;jiggle=2;" parent="1" source="17" edge="1">
                    <mxGeometry relative="1" as="geometry">
                        <mxPoint x="180" y="200" as="targetPoint"/>
                        <mxPoint x="280" y="130" as="sourcePoint"/>
                        <Array as="points">
                            <mxPoint x="250" y="180"/>
                        </Array>
                    </mxGeometry>
                </mxCell>
                <mxCell id="78" value="" style="edgeStyle=none;html=1;sketch=1;curveFitting=1;jiggle=2;" parent="1" source="17" target="53" edge="1">
                    <mxGeometry relative="1" as="geometry"/>
                </mxCell>
                <mxCell id="17" value="Foo()" style="labelPosition=center;verticalLabelPosition=middle;align=center;html=1;shape=mxgraph.basic.button;dx=10;whiteSpace=wrap;sketch=1;curveFitting=1;jiggle=2;" parent="1" vertex="1">
                    <mxGeometry x="280" y="70" width="120" height="50" as="geometry"/>
                </mxCell>
                <mxCell id="50" style="edgeStyle=none;html=1;entryX=0.667;entryY=0;entryDx=0;entryDy=0;entryPerimeter=0;exitX=0.028;exitY=0.94;exitDx=0;exitDy=0;exitPerimeter=0;sketch=1;curveFitting=1;jiggle=2;" parent="1" source="18" target="11" edge="1">
                    <mxGeometry relative="1" as="geometry"/>
                </mxCell>
                <mxCell id="59" style="edgeStyle=none;html=1;entryX=-0.005;entryY=0.99;entryDx=0;entryDy=0;entryPerimeter=0;sketch=1;curveFitting=1;jiggle=2;" parent="1" source="18" target="53" edge="1">
                    <mxGeometry relative="1" as="geometry">
                        <Array as="points">
                            <mxPoint x="400" y="140"/>
                        </Array>
                    </mxGeometry>
                </mxCell>
                <mxCell id="18" value="Function.prototype" style="labelPosition=center;verticalLabelPosition=middle;align=center;html=1;shape=mxgraph.basic.button;dx=10;whiteSpace=wrap;fillColor=rgb(24, 20, 29);sketch=1;curveFitting=1;jiggle=2;" parent="1" vertex="1">
                    <mxGeometry x="280" y="200" width="125" height="50" as="geometry"/>
                </mxCell>
                <mxCell id="28" style="edgeStyle=none;html=1;entryX=0.495;entryY=1.024;entryDx=0;entryDy=0;entryPerimeter=0;sketch=1;curveFitting=1;jiggle=2;" parent="1" source="20" target="18" edge="1">
                    <mxGeometry relative="1" as="geometry"/>
                </mxCell>
                <mxCell id="41" value="" style="edgeStyle=none;html=1;sketch=1;curveFitting=1;jiggle=2;" parent="1" source="20" target="11" edge="1">
                    <mxGeometry relative="1" as="geometry">
                        <Array as="points">
                            <mxPoint x="240" y="400"/>
                        </Array>
                    </mxGeometry>
                </mxCell>
                <mxCell id="73" style="edgeStyle=none;html=1;sketch=1;curveFitting=1;jiggle=2;" parent="1" source="20" edge="1">
                    <mxGeometry relative="1" as="geometry">
                        <mxPoint x="540" y="120" as="targetPoint"/>
                        <Array as="points">
                            <mxPoint x="540" y="280"/>
                        </Array>
                    </mxGeometry>
                </mxCell>
                <mxCell id="20" value="Object()" style="labelPosition=center;verticalLabelPosition=middle;align=center;html=1;shape=mxgraph.basic.button;dx=10;whiteSpace=wrap;fillColor=rgb(24, 20, 29);sketch=1;curveFitting=1;jiggle=2;" parent="1" vertex="1">
                    <mxGeometry x="280" y="340" width="120" height="50" as="geometry"/>
                </mxCell>
                <mxCell id="24" value="__proto__" style="text;html=1;align=center;verticalAlign=middle;resizable=0;points=[];autosize=1;strokeColor=none;fillColor=none;sketch=1;curveFitting=1;jiggle=2;" parent="1" vertex="1">
                    <mxGeometry x="280" y="140" width="80" height="30" as="geometry"/>
                </mxCell>
                <mxCell id="25" value="__proto__" style="text;html=1;align=center;verticalAlign=middle;resizable=0;points=[];autosize=1;strokeColor=none;fillColor=none;sketch=1;curveFitting=1;jiggle=2;" parent="1" vertex="1">
                    <mxGeometry x="280" y="280" width="80" height="30" as="geometry"/>
                </mxCell>
                <mxCell id="42" value="constructor" style="text;html=1;align=center;verticalAlign=middle;resizable=0;points=[];autosize=1;strokeColor=none;fillColor=none;sketch=1;curveFitting=1;jiggle=2;" parent="1" vertex="1">
                    <mxGeometry x="195" y="320" width="80" height="30" as="geometry"/>
                </mxCell>
                <mxCell id="43" value="prototype" style="text;html=1;align=center;verticalAlign=middle;resizable=0;points=[];autosize=1;strokeColor=none;fillColor=none;sketch=1;curveFitting=1;jiggle=2;" parent="1" vertex="1">
                    <mxGeometry x="205" y="370" width="70" height="30" as="geometry"/>
                </mxCell>
                <mxCell id="46" value="constructor" style="text;html=1;align=center;verticalAlign=middle;resizable=0;points=[];autosize=1;strokeColor=none;fillColor=none;sketch=1;curveFitting=1;jiggle=2;" parent="1" vertex="1">
                    <mxGeometry x="160" y="120" width="80" height="30" as="geometry"/>
                </mxCell>
                <mxCell id="48" value="__proto__" style="text;html=1;align=center;verticalAlign=middle;resizable=0;points=[];autosize=1;strokeColor=none;fillColor=none;sketch=1;curveFitting=1;jiggle=2;" parent="1" vertex="1">
                    <mxGeometry x="195" y="180" width="80" height="30" as="geometry"/>
                </mxCell>
                <mxCell id="51" value="__proto__" style="text;html=1;align=center;verticalAlign=middle;resizable=0;points=[];autosize=1;strokeColor=none;fillColor=none;sketch=1;curveFitting=1;jiggle=2;" parent="1" vertex="1">
                    <mxGeometry x="160" y="280" width="80" height="30" as="geometry"/>
                </mxCell>
                <mxCell id="65" style="edgeStyle=none;html=1;entryX=0.96;entryY=0;entryDx=0;entryDy=0;entryPerimeter=0;exitX=0.203;exitY=1.057;exitDx=0;exitDy=0;exitPerimeter=0;sketch=1;curveFitting=1;jiggle=2;" parent="1" source="53" target="18" edge="1">
                    <mxGeometry relative="1" as="geometry">
                        <Array as="points">
                            <mxPoint x="480" y="190"/>
                        </Array>
                    </mxGeometry>
                </mxCell>
                <mxCell id="53" value="Function()" style="labelPosition=center;verticalLabelPosition=middle;align=center;html=1;shape=mxgraph.basic.button;dx=10;whiteSpace=wrap;fillColor=rgb(24, 20, 29);sketch=1;curveFitting=1;jiggle=2;" parent="1" vertex="1">
                    <mxGeometry x="480" y="70" width="120" height="50" as="geometry"/>
                </mxCell>
                <mxCell id="60" value="constructor" style="text;html=1;align=center;verticalAlign=middle;resizable=0;points=[];autosize=1;strokeColor=none;fillColor=none;sketch=1;curveFitting=1;jiggle=2;" parent="1" vertex="1">
                    <mxGeometry x="370" y="140" width="80" height="30" as="geometry"/>
                </mxCell>
                <mxCell id="66" value="__proto__" style="text;html=1;align=center;verticalAlign=middle;resizable=0;points=[];autosize=1;strokeColor=none;fillColor=none;rotation=0;sketch=1;curveFitting=1;jiggle=2;" parent="1" vertex="1">
                    <mxGeometry x="450" y="140" width="80" height="30" as="geometry"/>
                </mxCell>
                <mxCell id="71" value="prototype" style="text;html=1;align=center;verticalAlign=middle;resizable=0;points=[];autosize=1;strokeColor=none;fillColor=none;sketch=1;curveFitting=1;jiggle=2;" parent="1" vertex="1">
                    <mxGeometry x="455" y="170" width="70" height="30" as="geometry"/>
                </mxCell>
                <mxCell id="76" value="constructor" style="text;html=1;align=center;verticalAlign=middle;resizable=0;points=[];autosize=1;strokeColor=none;fillColor=none;sketch=1;curveFitting=1;jiggle=2;" parent="1" vertex="1">
                    <mxGeometry x="500" y="210" width="80" height="30" as="geometry"/>
                </mxCell>
                <mxCell id="79" value="constructor" style="text;html=1;align=center;verticalAlign=middle;resizable=0;points=[];autosize=1;strokeColor=none;fillColor=none;sketch=1;curveFitting=1;jiggle=2;" parent="1" vertex="1">
                    <mxGeometry x="190" y="70" width="80" height="30" as="geometry"/>
                </mxCell>
                <mxCell id="81" value="constructor" style="text;html=1;align=center;verticalAlign=middle;resizable=0;points=[];autosize=1;strokeColor=none;fillColor=none;sketch=1;curveFitting=1;jiggle=2;" parent="1" vertex="1">
                    <mxGeometry x="400" y="70" width="80" height="30" as="geometry"/>
                </mxCell>
            </root>
        </mxGraphModel>
    </diagram>
</mxfile>